<svg width="29" height="36" viewBox="0 0 29 36" fill="none" xmlns="http://www.w3.org/2000/svg">
<path d="M14.4 35.5332C14.2222 35.5332 14.0444 35.4888 13.8667 35.3999L8.4 32.7332C5.82222 31.4888 3.77778 29.6221 2.26667 27.1332C0.755556 24.6443 0 21.9332 0 18.9999V5.5332C0 5.17764 0.111111 4.88876 0.333333 4.66653C0.555556 4.44431 0.8 4.3332 1.06667 4.3332H4.93333C6.53333 4.3332 8.04445 3.88876 9.46667 2.99987L13.7333 0.199867C14.1778 -0.0667992 14.6222 -0.0667992 15.0667 0.199867L19.3333 2.99987C20.6667 3.88876 22.1333 4.3332 23.7333 4.3332H27.6C27.9556 4.24431 28.2444 4.3332 28.4667 4.59987C28.6889 4.86654 28.8 5.17764 28.8 5.5332V18.9999C28.8 21.9332 28.0444 24.6443 26.5333 27.1332C25.0222 29.6221 22.9333 31.4888 20.2667 32.7332L14.9333 35.3999C14.7556 35.4888 14.5778 35.5332 14.4 35.5332ZM2.26667 6.7332V18.9999C2.26667 21.4888 2.93333 23.7776 4.26667 25.8665C5.6 27.9554 7.33333 29.5332 9.46667 30.5999L14.4 32.9999L19.3333 30.5999C21.4667 29.5332 23.2 27.9554 24.5333 25.8665C25.8667 23.7776 26.5333 21.4888 26.5333 18.9999V6.7332H23.8667C21.7333 6.7332 19.7778 6.15542 18 4.99987L14.4 2.59987L10.8 4.99987C9.02222 6.15542 7.06667 6.7332 4.93333 6.7332H2.26667ZM14.4 18.7332C12.8889 18.7332 11.6222 18.1999 10.6 17.1332C9.57778 16.0665 9.06667 14.7999 9.06667 13.3332C9.06667 11.8665 9.57778 10.6221 10.6 9.59987C11.6222 8.57765 12.8889 8.06654 14.4 8.06654C15.9111 8.06654 17.1778 8.57765 18.2 9.59987C19.2222 10.6221 19.7333 11.8665 19.7333 13.3332C19.7333 14.7999 19.2222 16.0665 18.2 17.1332C17.1778 18.1999 15.9111 18.7332 14.4 18.7332ZM14.4 10.3332C13.6 10.3332 12.9111 10.6221 12.3333 11.1999C11.7556 11.7776 11.4667 12.4888 11.4667 13.3332C11.4667 14.1776 11.7556 14.8888 12.3333 15.4665C12.9111 16.0443 13.6 16.3332 14.4 16.3332C15.2 16.3332 15.8889 16.0443 16.4667 15.4665C17.0444 14.8888 17.3333 14.1776 17.3333 13.3332C17.3333 12.4888 17.0444 11.7776 16.4667 11.1999C15.8889 10.6221 15.2 10.3332 14.4 10.3332ZM21.4667 25.2665H19.2C19.2 24.5554 18.9556 23.9776 18.4667 23.5332C17.9778 23.0888 17.4222 22.8665 16.8 22.8665H12C11.3778 22.8665 10.8222 23.0888 10.3333 23.5332C9.84445 23.9776 9.6 24.5554 9.6 25.2665H7.33333C7.33333 23.9332 7.77778 22.7999 8.66667 21.8665C9.55556 20.9332 10.6667 20.4665 12 20.4665H16.8C18.0444 20.4665 19.1333 20.9332 20.0667 21.8665C21 22.7999 21.4667 23.9332 21.4667 25.2665Z" fill="black"/>
</svg>
