<svg width="40" height="40" viewBox="0 0 40 40" fill="none" xmlns="http://www.w3.org/2000/svg">
<path d="M30.21 23.4664C29.1434 23.4664 28.21 23.1109 27.41 22.3998L25.5434 20.5331L23.5434 22.5331C23.2767 22.7998 22.9656 22.9331 22.61 22.9331C22.2545 22.9331 21.9434 22.7998 21.6767 22.5331C21.41 22.2664 21.2767 21.9553 21.2767 21.5998C21.2767 21.2442 21.41 20.9331 21.6767 20.6664L24.7434 17.7331C24.9211 17.4664 25.21 17.3331 25.61 17.3331C26.01 17.3331 26.3434 17.4664 26.61 17.7331L29.41 20.5331C29.7656 20.7998 30.1656 20.8442 30.61 20.6664C31.0545 20.4887 31.2989 20.1998 31.3434 19.7998C31.3878 19.3998 31.2767 19.0664 31.01 18.7998L28.21 15.9998C27.9434 15.7331 27.81 15.422 27.81 15.0664C27.81 14.7109 27.9434 14.3998 28.21 14.1331L31.6767 10.6664C31.9434 10.3998 32.2545 10.2664 32.61 10.2664C32.9656 10.2664 33.2767 10.3998 33.5434 10.6664L35.1434 12.2664C35.41 12.5331 35.6989 12.6664 36.01 12.6664C36.3211 12.6664 36.5878 12.5553 36.81 12.3331C37.0323 12.1109 37.1434 11.822 37.1434 11.4664C37.1434 11.1109 37.0545 10.8442 36.8767 10.6664L35.1434 8.93311C34.8767 8.75533 34.7434 8.46644 34.7434 8.06644C34.7434 7.66644 34.8767 7.33311 35.1434 7.06644L36.3434 5.99977C36.6989 5.64422 36.8989 5.17756 36.9434 4.59978C36.9878 4.022 36.7878 3.53311 36.3434 3.13311C35.8989 2.73311 35.3878 2.55533 34.81 2.59978C34.2323 2.64422 33.7656 2.88867 33.41 3.33311C33.1434 3.59978 32.8323 3.71089 32.4767 3.66645C32.1211 3.622 31.81 3.46645 31.5434 3.19978C31.2767 2.93311 31.1656 2.622 31.21 2.26645C31.2545 1.91089 31.41 1.59978 31.6767 1.33311C32.5656 0.444221 33.61 -0.000221252 34.81 -0.000221252C36.01 -0.000221252 37.0989 0.422001 38.0767 1.26645C39.0545 2.11089 39.5434 3.19978 39.5434 4.53311C39.5434 5.86644 39.0989 6.97755 38.21 7.86644L37.9434 7.99978L38.7434 8.79978C39.4545 9.51089 39.81 10.3998 39.81 11.4664C39.81 12.5331 39.4323 13.4442 38.6767 14.1998C37.9211 14.9553 37.0323 15.3331 36.01 15.3331C34.9878 15.3331 34.0767 14.9331 33.2767 14.1331L32.61 13.4664L31.01 15.0664L32.8767 17.0664C33.5878 17.7776 33.9434 18.6664 33.9434 19.7331C33.9434 20.7998 33.5656 21.6887 32.81 22.3998C32.0545 23.1109 31.1878 23.4664 30.21 23.4664ZM30.0767 4.66645C29.81 4.39978 29.4989 4.26645 29.1434 4.26645C28.7878 4.26645 28.4767 4.39978 28.21 4.66645L13.81 19.1998C12.1211 18.5776 10.3878 18.422 8.61003 18.7331C6.83225 19.0442 5.25447 19.7553 3.8767 20.8664C2.49892 21.9776 1.45447 23.3776 0.743363 25.0664C0.0322514 26.7553 -0.212193 28.4664 0.0100291 30.1998C0.232251 31.9331 0.832251 33.5331 1.81003 34.9998C2.78781 36.4664 4.09892 37.5998 5.74336 38.3998C7.38781 39.1998 9.09892 39.5776 10.8767 39.5331C12.6545 39.4887 14.2989 38.9998 15.81 38.0664C17.3211 37.1331 18.5211 35.8887 19.41 34.3331C20.2989 32.7776 20.7656 31.1109 20.81 29.3331C20.8545 27.5553 20.4767 25.8887 19.6767 24.3331C18.8767 22.7776 17.7656 21.4664 16.3434 20.3998L30.0767 6.53311C30.3434 6.26644 30.4767 5.95533 30.4767 5.59978C30.4767 5.24422 30.3434 4.93311 30.0767 4.66645ZM18.0767 29.0664C18.0767 30.4887 17.7434 31.7998 17.0767 32.9998C16.41 34.1998 15.4545 35.1553 14.21 35.8664C12.9656 36.5776 11.6323 36.9331 10.21 36.9331C8.78781 36.9331 7.4767 36.5776 6.2767 35.8664C5.0767 35.1553 4.14336 34.1998 3.4767 32.9998C2.81003 31.7998 2.4767 30.4887 2.4767 29.0664C2.4767 27.6442 2.81003 26.3331 3.4767 25.1331C4.14336 23.9331 5.0767 22.9776 6.2767 22.2664C7.4767 21.5553 8.78781 21.1998 10.21 21.1998C11.6323 21.1998 12.9656 21.5553 14.21 22.2664C15.4545 22.9776 16.41 23.9331 17.0767 25.1331C17.7434 26.3331 18.0767 27.6442 18.0767 29.0664ZM7.81003 32.7998C7.54336 32.8887 7.2767 32.8442 7.01003 32.6664C6.74336 32.4887 6.56559 32.2664 6.4767 31.9998C6.38781 31.7331 6.36558 31.4664 6.41003 31.1998C6.45447 30.9331 6.61003 30.7109 6.8767 30.5331L8.0767 29.3331C8.43225 28.9776 8.85447 28.8442 9.34336 28.9331C9.83225 29.022 10.1434 29.3109 10.2767 29.7998C10.41 30.2887 10.2989 30.7109 9.94336 31.0664L8.74336 32.3998C8.4767 32.6664 8.16559 32.7998 7.81003 32.7998Z" fill="#181A20"/>
</svg>
