<svg width="36" height="36" viewBox="0 0 36 36" fill="none" xmlns="http://www.w3.org/2000/svg">
<path d="M34.4 24.1335L22.6667 8.00013L24.2667 3.0668C24.5333 2.35568 24.4222 1.66679 23.9333 1.00013C23.4444 0.333462 22.8 0.0001297 22 0.0001297H13.4667C12.6667 0.0001297 12.0222 0.333462 11.5333 1.00013C11.0444 1.66679 10.9333 2.35568 11.2 3.0668L12.9333 8.00013L1.06667 24.1335C0.355556 25.1112 0 26.2668 0 27.6001V29.6001C0 31.2001 0.577778 32.5779 1.73333 33.7335C2.88889 34.889 4.26667 35.4668 5.86667 35.4668H29.6C31.2 35.4668 32.5778 34.889 33.7333 33.7335C34.8889 32.5779 35.4667 31.2001 35.4667 29.6001V27.6001C35.5556 26.2668 35.2 25.1112 34.4 24.1335ZM22 2.2668L20.4 7.0668H15.0667L13.4667 2.2668H22ZM33.0667 29.6001C33.0667 30.5779 32.7333 31.4224 32.0667 32.1335C31.4 32.8446 30.5778 33.2001 29.6 33.2001H5.86667C4.88889 33.2001 4.04444 32.8446 3.33333 32.1335C2.62222 31.4224 2.26667 30.5779 2.26667 29.6001V27.6001C2.35556 26.8001 2.62222 26.089 3.06667 25.4668L14.8 9.46679H20.6667L32.4 25.4668C32.9333 26.089 33.2 26.8001 33.2 27.6001L33.0667 29.6001ZM21.3333 22.5335H15.3333V20.5335H22V18.2668H18.9333V16.5335H16.5333V18.1335H14.1333C13.7778 18.2224 13.4889 18.3779 13.2667 18.6001C13.0444 18.8224 12.9333 19.0668 12.9333 19.3335V23.6001C12.9333 23.9557 13.0444 24.2446 13.2667 24.4668C13.4889 24.689 13.7778 24.8001 14.1333 24.8001H20.1333V26.8001H13.4667V29.0668H16.5333V30.8001H18.9333V29.0668H21.3333C21.6 29.0668 21.8667 28.9557 22.1333 28.7335C22.4 28.5112 22.5333 28.2224 22.5333 27.8668V23.6001C22.5333 23.3335 22.4 23.089 22.1333 22.8668C21.8667 22.6446 21.6 22.5335 21.3333 22.5335Z" fill="#181A20"/>
</svg>
